<svg width="347" height="214" viewBox="0 0 347 214" fill="none" xmlns="http://www.w3.org/2000/svg">
<rect width="347" height="214" fill="#F5F5F5"/>
<path d="M129.651 129H128.358L132.097 118.818H133.369L137.108 129H135.815L132.773 120.429H132.693L129.651 129ZM130.128 125.023H135.338V126.116H130.128V125.023ZM141.418 129.159C140.782 129.159 140.22 128.998 139.733 128.677C139.246 128.352 138.865 127.895 138.589 127.305C138.314 126.711 138.177 126.01 138.177 125.202C138.177 124.4 138.314 123.704 138.589 123.114C138.865 122.524 139.247 122.068 139.738 121.746C140.228 121.425 140.795 121.264 141.438 121.264C141.935 121.264 142.328 121.347 142.616 121.513C142.908 121.675 143.13 121.861 143.283 122.07C143.438 122.275 143.559 122.444 143.646 122.577H143.745V118.818H144.918V129H143.785V127.827H143.646C143.559 127.966 143.437 128.142 143.278 128.354C143.119 128.562 142.892 128.75 142.597 128.915C142.302 129.078 141.909 129.159 141.418 129.159ZM141.577 128.105C142.048 128.105 142.446 127.982 142.771 127.737C143.095 127.489 143.342 127.146 143.511 126.708C143.68 126.267 143.765 125.759 143.765 125.182C143.765 124.612 143.682 124.113 143.516 123.685C143.351 123.254 143.105 122.92 142.781 122.681C142.456 122.439 142.055 122.318 141.577 122.318C141.08 122.318 140.666 122.446 140.335 122.701C140.006 122.953 139.759 123.296 139.594 123.73C139.431 124.161 139.35 124.645 139.35 125.182C139.35 125.725 139.433 126.219 139.599 126.663C139.768 127.104 140.016 127.455 140.344 127.717C140.676 127.976 141.087 128.105 141.577 128.105ZM147.23 129V121.364H148.403V129H147.23ZM147.827 120.091C147.598 120.091 147.401 120.013 147.235 119.857C147.073 119.701 146.991 119.514 146.991 119.295C146.991 119.077 147.073 118.889 147.235 118.734C147.401 118.578 147.598 118.5 147.827 118.5C148.055 118.5 148.251 118.578 148.413 118.734C148.579 118.889 148.662 119.077 148.662 119.295C148.662 119.514 148.579 119.701 148.413 119.857C148.251 120.013 148.055 120.091 147.827 120.091ZM153.655 129.159C152.939 129.159 152.322 128.99 151.805 128.652C151.288 128.314 150.89 127.848 150.612 127.255C150.334 126.662 150.194 125.984 150.194 125.222C150.194 124.446 150.337 123.762 150.622 123.168C150.91 122.572 151.311 122.106 151.825 121.771C152.342 121.433 152.945 121.264 153.635 121.264C154.172 121.264 154.656 121.364 155.086 121.562C155.517 121.761 155.87 122.04 156.145 122.398C156.421 122.756 156.591 123.173 156.657 123.651H155.484C155.395 123.303 155.196 122.994 154.888 122.726C154.583 122.454 154.172 122.318 153.655 122.318C153.197 122.318 152.796 122.437 152.452 122.676C152.11 122.911 151.843 123.245 151.651 123.675C151.462 124.103 151.368 124.605 151.368 125.182C151.368 125.772 151.461 126.286 151.646 126.723C151.835 127.161 152.1 127.5 152.442 127.742C152.786 127.984 153.191 128.105 153.655 128.105C153.96 128.105 154.236 128.052 154.485 127.946C154.733 127.84 154.944 127.688 155.116 127.489C155.289 127.29 155.411 127.051 155.484 126.773H156.657C156.591 127.223 156.427 127.629 156.165 127.991C155.907 128.349 155.564 128.634 155.136 128.846C154.712 129.055 154.218 129.159 153.655 129.159ZM158.373 129V121.364H159.546V129H158.373ZM158.969 120.091C158.741 120.091 158.543 120.013 158.378 119.857C158.215 119.701 158.134 119.514 158.134 119.295C158.134 119.077 158.215 118.889 158.378 118.734C158.543 118.578 158.741 118.5 158.969 118.5C159.198 118.5 159.394 118.578 159.556 118.734C159.722 118.889 159.805 119.077 159.805 119.295C159.805 119.514 159.722 119.701 159.556 119.857C159.394 120.013 159.198 120.091 158.969 120.091ZM164.797 129.159C164.108 129.159 163.503 128.995 162.983 128.667C162.466 128.339 162.061 127.88 161.77 127.29C161.481 126.7 161.337 126.01 161.337 125.222C161.337 124.426 161.481 123.732 161.77 123.138C162.061 122.545 162.466 122.085 162.983 121.756C163.503 121.428 164.108 121.264 164.797 121.264C165.487 121.264 166.09 121.428 166.607 121.756C167.127 122.085 167.532 122.545 167.82 123.138C168.112 123.732 168.257 124.426 168.257 125.222C168.257 126.01 168.112 126.7 167.82 127.29C167.532 127.88 167.127 128.339 166.607 128.667C166.09 128.995 165.487 129.159 164.797 129.159ZM164.797 128.105C165.321 128.105 165.752 127.971 166.09 127.702C166.428 127.434 166.678 127.081 166.841 126.643C167.003 126.206 167.084 125.732 167.084 125.222C167.084 124.711 167.003 124.236 166.841 123.795C166.678 123.354 166.428 122.998 166.09 122.726C165.752 122.454 165.321 122.318 164.797 122.318C164.274 122.318 163.843 122.454 163.505 122.726C163.167 122.998 162.916 123.354 162.754 123.795C162.592 124.236 162.51 124.711 162.51 125.222C162.51 125.732 162.592 126.206 162.754 126.643C162.916 127.081 163.167 127.434 163.505 127.702C163.843 127.971 164.274 128.105 164.797 128.105ZM171.222 124.406V129H170.048V121.364H171.182V122.557H171.281C171.46 122.169 171.732 121.857 172.097 121.622C172.461 121.384 172.932 121.264 173.509 121.264C174.026 121.264 174.478 121.37 174.866 121.582C175.254 121.791 175.555 122.109 175.771 122.537C175.986 122.961 176.094 123.498 176.094 124.148V129H174.921V124.227C174.921 123.627 174.765 123.16 174.453 122.825C174.142 122.487 173.714 122.318 173.171 122.318C172.796 122.318 172.461 122.399 172.166 122.562C171.875 122.724 171.644 122.961 171.475 123.273C171.306 123.584 171.222 123.962 171.222 124.406ZM181.44 129.159C180.704 129.159 180.069 128.997 179.536 128.672C179.005 128.344 178.596 127.886 178.308 127.3C178.022 126.71 177.88 126.024 177.88 125.241C177.88 124.459 178.022 123.77 178.308 123.173C178.596 122.573 178.997 122.106 179.511 121.771C180.028 121.433 180.631 121.264 181.32 121.264C181.718 121.264 182.111 121.33 182.499 121.463C182.886 121.596 183.239 121.811 183.558 122.109C183.876 122.404 184.129 122.795 184.318 123.283C184.507 123.77 184.602 124.37 184.602 125.082V125.58H178.715V124.565H183.408C183.408 124.134 183.322 123.75 183.15 123.412C182.981 123.074 182.739 122.807 182.424 122.612C182.112 122.416 181.745 122.318 181.32 122.318C180.853 122.318 180.449 122.434 180.107 122.666C179.769 122.895 179.509 123.193 179.327 123.561C179.144 123.929 179.053 124.323 179.053 124.744V125.42C179.053 125.997 179.153 126.486 179.352 126.887C179.554 127.285 179.834 127.588 180.192 127.797C180.55 128.002 180.966 128.105 181.44 128.105C181.748 128.105 182.026 128.062 182.275 127.976C182.527 127.886 182.744 127.754 182.926 127.578C183.108 127.399 183.249 127.177 183.349 126.912L184.482 127.23C184.363 127.615 184.162 127.953 183.881 128.244C183.599 128.533 183.251 128.758 182.837 128.92C182.422 129.08 181.957 129.159 181.44 129.159ZM190.324 129V121.364H191.497V129H190.324ZM190.92 120.091C190.692 120.091 190.495 120.013 190.329 119.857C190.166 119.701 190.085 119.514 190.085 119.295C190.085 119.077 190.166 118.889 190.329 118.734C190.495 118.578 190.692 118.5 190.92 118.5C191.149 118.5 191.345 118.578 191.507 118.734C191.673 118.889 191.756 119.077 191.756 119.295C191.756 119.514 191.673 119.701 191.507 119.857C191.345 120.013 191.149 120.091 190.92 120.091ZM196.967 121.364V122.358H193.01V121.364H196.967ZM194.163 119.534H195.336V126.812C195.336 127.144 195.385 127.393 195.481 127.558C195.58 127.721 195.706 127.83 195.858 127.886C196.014 127.939 196.178 127.966 196.351 127.966C196.48 127.966 196.586 127.959 196.669 127.946C196.752 127.929 196.818 127.916 196.868 127.906L197.106 128.96C197.027 128.99 196.916 129.02 196.773 129.05C196.631 129.083 196.45 129.099 196.231 129.099C195.9 129.099 195.575 129.028 195.257 128.886C194.942 128.743 194.68 128.526 194.471 128.234C194.266 127.943 194.163 127.575 194.163 127.131V119.534ZM201.852 129.159C201.116 129.159 200.481 128.997 199.948 128.672C199.417 128.344 199.008 127.886 198.72 127.3C198.435 126.71 198.292 126.024 198.292 125.241C198.292 124.459 198.435 123.77 198.72 123.173C199.008 122.573 199.409 122.106 199.923 121.771C200.44 121.433 201.043 121.264 201.732 121.264C202.13 121.264 202.523 121.33 202.911 121.463C203.298 121.596 203.651 121.811 203.97 122.109C204.288 122.404 204.541 122.795 204.73 123.283C204.919 123.77 205.014 124.37 205.014 125.082V125.58H199.127V124.565H203.82C203.82 124.134 203.734 123.75 203.562 123.412C203.393 123.074 203.151 122.807 202.836 122.612C202.525 122.416 202.157 122.318 201.732 122.318C201.265 122.318 200.861 122.434 200.519 122.666C200.181 122.895 199.921 123.193 199.739 123.561C199.557 123.929 199.465 124.323 199.465 124.744V125.42C199.465 125.997 199.565 126.486 199.764 126.887C199.966 127.285 200.246 127.588 200.604 127.797C200.962 128.002 201.378 128.105 201.852 128.105C202.16 128.105 202.438 128.062 202.687 127.976C202.939 127.886 203.156 127.754 203.338 127.578C203.521 127.399 203.661 127.177 203.761 126.912L204.894 127.23C204.775 127.615 204.575 127.953 204.293 128.244C204.011 128.533 203.663 128.758 203.249 128.92C202.834 129.08 202.369 129.159 201.852 129.159ZM207.972 124.406V129H206.798V121.364H207.932V122.557H208.031C208.21 122.169 208.482 121.857 208.847 121.622C209.211 121.384 209.682 121.264 210.259 121.264C210.776 121.264 211.228 121.37 211.616 121.582C212.004 121.791 212.305 122.109 212.521 122.537C212.736 122.961 212.844 123.498 212.844 124.148V129H211.671V124.227C211.671 123.627 211.515 123.16 211.203 122.825C210.892 122.487 210.464 122.318 209.921 122.318C209.546 122.318 209.211 122.399 208.916 122.562C208.625 122.724 208.394 122.961 208.225 123.273C208.056 123.584 207.972 123.962 207.972 124.406ZM220.397 123.074L219.343 123.372C219.277 123.196 219.179 123.026 219.05 122.86C218.924 122.691 218.751 122.552 218.533 122.442C218.314 122.333 218.034 122.278 217.692 122.278C217.225 122.278 216.836 122.386 216.524 122.602C216.216 122.814 216.062 123.084 216.062 123.412C216.062 123.704 216.168 123.934 216.38 124.103C216.592 124.272 216.924 124.413 217.374 124.526L218.508 124.804C219.191 124.97 219.699 125.223 220.034 125.565C220.369 125.903 220.536 126.339 220.536 126.872C220.536 127.31 220.41 127.701 220.158 128.045C219.91 128.39 219.562 128.662 219.114 128.861C218.667 129.06 218.147 129.159 217.553 129.159C216.774 129.159 216.13 128.99 215.619 128.652C215.109 128.314 214.786 127.82 214.65 127.17L215.763 126.892C215.87 127.303 216.07 127.611 216.365 127.817C216.663 128.022 217.053 128.125 217.533 128.125C218.08 128.125 218.514 128.009 218.836 127.777C219.161 127.542 219.323 127.26 219.323 126.932C219.323 126.667 219.23 126.445 219.045 126.266C218.859 126.083 218.574 125.947 218.19 125.858L216.917 125.56C216.218 125.394 215.704 125.137 215.376 124.789C215.051 124.438 214.888 123.999 214.888 123.472C214.888 123.041 215.009 122.66 215.251 122.328C215.497 121.997 215.83 121.737 216.251 121.548C216.675 121.359 217.156 121.264 217.692 121.264C218.448 121.264 219.041 121.43 219.472 121.761C219.906 122.093 220.215 122.53 220.397 123.074Z" fill="#242424"/>
<path d="M110.508 91.6016H107.086C107.023 91.1589 106.896 90.7656 106.703 90.4219C106.51 90.0729 106.263 89.776 105.961 89.5312C105.659 89.2865 105.31 89.099 104.914 88.9687C104.523 88.8385 104.099 88.7734 103.641 88.7734C102.813 88.7734 102.091 88.9792 101.477 89.3906C100.862 89.7969 100.385 90.3906 100.047 91.1719C99.7083 91.9479 99.5391 92.8906 99.5391 94C99.5391 95.1406 99.7083 96.099 100.047 96.875C100.391 97.651 100.87 98.237 101.484 98.6328C102.099 99.0286 102.81 99.2266 103.617 99.2266C104.07 99.2266 104.49 99.1667 104.875 99.0469C105.266 98.9271 105.612 98.7526 105.914 98.5234C106.216 98.2891 106.466 98.0052 106.664 97.6719C106.867 97.3385 107.008 96.9583 107.086 96.5312L110.508 96.5469C110.419 97.2812 110.198 97.9896 109.844 98.6719C109.495 99.349 109.023 99.9557 108.43 100.492C107.841 101.023 107.138 101.445 106.32 101.758C105.508 102.065 104.589 102.219 103.563 102.219C102.135 102.219 100.859 101.896 99.7344 101.25C98.6146 100.604 97.7292 99.6693 97.0781 98.4453C96.4323 97.2214 96.1094 95.7396 96.1094 94C96.1094 92.2552 96.4375 90.7708 97.0938 89.5469C97.75 88.3229 98.6406 87.3906 99.7656 86.75C100.891 86.1042 102.156 85.7812 103.563 85.7812C104.49 85.7812 105.349 85.9115 106.141 86.1719C106.938 86.4323 107.643 86.8125 108.258 87.3125C108.872 87.8073 109.372 88.4141 109.758 89.1328C110.148 89.8516 110.398 90.6745 110.508 91.6016ZM116.293 102.227C115.527 102.227 114.845 102.094 114.246 101.828C113.647 101.557 113.173 101.159 112.824 100.633C112.48 100.102 112.309 99.4401 112.309 98.6484C112.309 97.9818 112.431 97.4219 112.676 96.9687C112.921 96.5156 113.254 96.151 113.676 95.875C114.098 95.599 114.577 95.3906 115.113 95.25C115.655 95.1094 116.223 95.0104 116.816 94.9531C117.514 94.8802 118.077 94.8125 118.504 94.75C118.931 94.6823 119.241 94.5833 119.434 94.4531C119.626 94.3229 119.723 94.1302 119.723 93.875V93.8281C119.723 93.3333 119.566 92.9505 119.254 92.6797C118.947 92.4089 118.509 92.2734 117.941 92.2734C117.342 92.2734 116.866 92.4062 116.512 92.6719C116.158 92.9323 115.923 93.2604 115.809 93.6562L112.73 93.4062C112.887 92.6771 113.194 92.0469 113.652 91.5156C114.111 90.9792 114.702 90.5677 115.426 90.2812C116.155 89.9896 116.999 89.8438 117.957 89.8438C118.624 89.8438 119.262 89.9219 119.871 90.0781C120.486 90.2344 121.03 90.4766 121.504 90.8047C121.983 91.1328 122.361 91.5547 122.637 92.0703C122.913 92.5807 123.051 93.1927 123.051 93.9062V102H119.895V100.336H119.801C119.608 100.711 119.35 101.042 119.027 101.328C118.704 101.609 118.316 101.831 117.863 101.992C117.41 102.148 116.887 102.227 116.293 102.227ZM117.246 99.9297C117.736 99.9297 118.168 99.8333 118.543 99.6406C118.918 99.4427 119.212 99.1771 119.426 98.8438C119.639 98.5104 119.746 98.1328 119.746 97.7109V96.4375C119.642 96.5052 119.499 96.5677 119.316 96.625C119.139 96.6771 118.939 96.7266 118.715 96.7734C118.491 96.8151 118.267 96.8542 118.043 96.8906C117.819 96.9219 117.616 96.9505 117.434 96.9766C117.043 97.0339 116.702 97.125 116.41 97.25C116.118 97.375 115.892 97.5443 115.73 97.7578C115.569 97.9661 115.488 98.2266 115.488 98.5391C115.488 98.9922 115.652 99.3385 115.98 99.5781C116.314 99.8125 116.736 99.9297 117.246 99.9297ZM125.633 102V90H128.859V92.0937H128.984C129.203 91.349 129.57 90.7865 130.086 90.4063C130.602 90.0208 131.195 89.8281 131.867 89.8281C132.034 89.8281 132.214 89.8385 132.406 89.8594C132.599 89.8802 132.768 89.9089 132.914 89.9453V92.8984C132.758 92.8516 132.542 92.8099 132.266 92.7734C131.99 92.737 131.737 92.7188 131.508 92.7188C131.018 92.7188 130.581 92.8255 130.195 93.0391C129.815 93.2474 129.513 93.5391 129.289 93.9141C129.07 94.2891 128.961 94.7214 128.961 95.2109V102H125.633ZM134.635 102V90H137.861V92.0937H137.986C138.205 91.349 138.572 90.7865 139.088 90.4063C139.604 90.0208 140.197 89.8281 140.869 89.8281C141.036 89.8281 141.215 89.8385 141.408 89.8594C141.601 89.8802 141.77 89.9089 141.916 89.9453V92.8984C141.76 92.8516 141.544 92.8099 141.268 92.7734C140.992 92.737 140.739 92.7188 140.51 92.7188C140.02 92.7188 139.583 92.8255 139.197 93.0391C138.817 93.2474 138.515 93.5391 138.291 93.9141C138.072 94.2891 137.963 94.7214 137.963 95.2109V102H134.635ZM143.637 102V90H146.965V102H143.637ZM145.309 88.4531C144.814 88.4531 144.389 88.2891 144.035 87.9609C143.686 87.6276 143.512 87.2292 143.512 86.7656C143.512 86.3073 143.686 85.9141 144.035 85.5859C144.389 85.2526 144.814 85.0859 145.309 85.0859C145.803 85.0859 146.225 85.2526 146.574 85.5859C146.928 85.9141 147.105 86.3073 147.105 86.7656C147.105 87.2292 146.928 87.6276 146.574 87.9609C146.225 88.2891 145.803 88.4531 145.309 88.4531ZM152.959 95.0625V102H149.631V90H152.803V92.1172H152.943C153.209 91.4193 153.654 90.8672 154.279 90.4609C154.904 90.0495 155.662 89.8438 156.553 89.8438C157.386 89.8438 158.113 90.026 158.732 90.3906C159.352 90.7552 159.834 91.276 160.178 91.9531C160.521 92.625 160.693 93.4271 160.693 94.3594V102H157.365V94.9531C157.37 94.2187 157.183 93.6458 156.803 93.2344C156.423 92.8177 155.899 92.6094 155.232 92.6094C154.785 92.6094 154.389 92.7057 154.045 92.8984C153.706 93.0911 153.441 93.3724 153.248 93.7422C153.061 94.1068 152.964 94.5469 152.959 95.0625ZM166.645 95.0625V102H163.316V86H166.551V92.1172H166.691C166.962 91.4089 167.4 90.8542 168.004 90.4531C168.608 90.0469 169.366 89.8438 170.277 89.8438C171.111 89.8438 171.837 90.026 172.457 90.3906C173.082 90.75 173.566 91.2682 173.91 91.9453C174.259 92.6172 174.431 93.4219 174.426 94.3594V102H171.098V94.9531C171.103 94.2135 170.915 93.638 170.535 93.2266C170.16 92.8151 169.634 92.6094 168.957 92.6094C168.504 92.6094 168.103 92.7057 167.754 92.8984C167.41 93.0911 167.139 93.3724 166.941 93.7422C166.749 94.1068 166.65 94.5469 166.645 95.0625ZM182.467 102.234C181.253 102.234 180.204 101.977 179.318 101.461C178.438 100.94 177.758 100.216 177.279 99.2891C176.8 98.3568 176.561 97.276 176.561 96.0469C176.561 94.8073 176.8 93.724 177.279 92.7969C177.758 91.8646 178.438 91.1406 179.318 90.625C180.204 90.1042 181.253 89.8438 182.467 89.8438C183.68 89.8438 184.727 90.1042 185.607 90.625C186.493 91.1406 187.175 91.8646 187.654 92.7969C188.133 93.724 188.373 94.8073 188.373 96.0469C188.373 97.276 188.133 98.3568 187.654 99.2891C187.175 100.216 186.493 100.94 185.607 101.461C184.727 101.977 183.68 102.234 182.467 102.234ZM182.482 99.6562C183.035 99.6562 183.495 99.5 183.865 99.1875C184.235 98.8698 184.514 98.4375 184.701 97.8906C184.894 97.3437 184.99 96.7214 184.99 96.0234C184.99 95.3255 184.894 94.7031 184.701 94.1562C184.514 93.6094 184.235 93.1771 183.865 92.8594C183.495 92.5417 183.035 92.3828 182.482 92.3828C181.925 92.3828 181.456 92.5417 181.076 92.8594C180.701 93.1771 180.417 93.6094 180.225 94.1562C180.037 94.7031 179.943 95.3255 179.943 96.0234C179.943 96.7214 180.037 97.3437 180.225 97.8906C180.417 98.4375 180.701 98.8698 181.076 99.1875C181.456 99.5 181.925 99.6562 182.482 99.6562ZM206.816 90L202.621 102H198.871L194.676 90H198.191L200.684 98.5859H200.809L203.293 90H206.816ZM211.619 102.227C210.854 102.227 210.171 102.094 209.572 101.828C208.973 101.557 208.499 101.159 208.15 100.633C207.807 100.102 207.635 99.4401 207.635 98.6484C207.635 97.9818 207.757 97.4219 208.002 96.9687C208.247 96.5156 208.58 96.151 209.002 95.875C209.424 95.599 209.903 95.3906 210.439 95.25C210.981 95.1094 211.549 95.0104 212.143 94.9531C212.84 94.8802 213.403 94.8125 213.83 94.75C214.257 94.6823 214.567 94.5833 214.76 94.4531C214.952 94.3229 215.049 94.1302 215.049 93.875V93.8281C215.049 93.3333 214.893 92.9505 214.58 92.6797C214.273 92.4089 213.835 92.2734 213.268 92.2734C212.669 92.2734 212.192 92.4062 211.838 92.6719C211.484 92.9323 211.249 93.2604 211.135 93.6562L208.057 93.4062C208.213 92.6771 208.52 92.0469 208.979 91.5156C209.437 90.9792 210.028 90.5677 210.752 90.2812C211.481 89.9896 212.325 89.8438 213.283 89.8438C213.95 89.8438 214.588 89.9219 215.197 90.0781C215.812 90.2344 216.356 90.4766 216.83 90.8047C217.309 91.1328 217.687 91.5547 217.963 92.0703C218.239 92.5807 218.377 93.1927 218.377 93.9062V102H215.221V100.336H215.127C214.934 100.711 214.676 101.042 214.354 101.328C214.031 101.609 213.643 101.831 213.189 101.992C212.736 102.148 212.213 102.227 211.619 102.227ZM212.572 99.9297C213.062 99.9297 213.494 99.8333 213.869 99.6406C214.244 99.4427 214.538 99.1771 214.752 98.8438C214.965 98.5104 215.072 98.1328 215.072 97.7109V96.4375C214.968 96.5052 214.825 96.5677 214.643 96.625C214.465 96.6771 214.265 96.7266 214.041 96.7734C213.817 96.8151 213.593 96.8542 213.369 96.8906C213.145 96.9219 212.942 96.9505 212.76 96.9766C212.369 97.0339 212.028 97.125 211.736 97.25C211.445 97.375 211.218 97.5443 211.057 97.7578C210.895 97.9661 210.814 98.2266 210.814 98.5391C210.814 98.9922 210.979 99.3385 211.307 99.5781C211.64 99.8125 212.062 99.9297 212.572 99.9297ZM212.213 88.4531L213.869 84.8984H216.947L214.564 88.4531H212.213ZM220.896 102V100.016L226.771 92.7422V92.6562H221.1V90H230.779V92.1641L225.264 99.2578V99.3437H230.982V102H220.896ZM233.527 102V90H236.855V102H233.527ZM235.199 88.4531C234.704 88.4531 234.28 88.2891 233.926 87.9609C233.577 87.6276 233.402 87.2292 233.402 86.7656C233.402 86.3073 233.577 85.9141 233.926 85.5859C234.28 85.2526 234.704 85.0859 235.199 85.0859C235.694 85.0859 236.116 85.2526 236.465 85.5859C236.819 85.9141 236.996 86.3073 236.996 86.7656C236.996 87.2292 236.819 87.6276 236.465 87.9609C236.116 88.2891 235.694 88.4531 235.199 88.4531ZM244.943 102.234C243.73 102.234 242.68 101.977 241.795 101.461C240.915 100.94 240.235 100.216 239.756 99.2891C239.277 98.3568 239.037 97.276 239.037 96.0469C239.037 94.8073 239.277 93.724 239.756 92.7969C240.235 91.8646 240.915 91.1406 241.795 90.625C242.68 90.1042 243.73 89.8438 244.943 89.8438C246.157 89.8438 247.204 90.1042 248.084 90.625C248.969 91.1406 249.652 91.8646 250.131 92.7969C250.61 93.724 250.85 94.8073 250.85 96.0469C250.85 97.276 250.61 98.3568 250.131 99.2891C249.652 100.216 248.969 100.94 248.084 101.461C247.204 101.977 246.157 102.234 244.943 102.234ZM244.959 99.6562C245.511 99.6562 245.972 99.5 246.342 99.1875C246.712 98.8698 246.99 98.4375 247.178 97.8906C247.37 97.3437 247.467 96.7214 247.467 96.0234C247.467 95.3255 247.37 94.7031 247.178 94.1562C246.99 93.6094 246.712 93.1771 246.342 92.8594C245.972 92.5417 245.511 92.3828 244.959 92.3828C244.402 92.3828 243.933 92.5417 243.553 92.8594C243.178 93.1771 242.894 93.6094 242.701 94.1562C242.514 94.7031 242.42 95.3255 242.42 96.0234C242.42 96.7214 242.514 97.3437 242.701 97.8906C242.894 98.4375 243.178 98.8698 243.553 99.1875C243.933 99.5 244.402 99.6562 244.959 99.6562Z" fill="#292929"/>
</svg>
