<?xml version="1.0" encoding="UTF-8" standalone="no"?>
<svg
   width="347"
   height="214"
   viewBox="0 0 347 214"
   fill="none"
   version="1.1"
   id="svg20"
   sodipodi:docname="carrinho_vazio.svg"
   inkscape:version="1.2 (dc2aedaf03, 2022-05-15)"
   xmlns:inkscape="http://www.inkscape.org/namespaces/inkscape"
   xmlns:sodipodi="http://sodipodi.sourceforge.net/DTD/sodipodi-0.dtd"
   xmlns="http://www.w3.org/2000/svg"
   xmlns:svg="http://www.w3.org/2000/svg">
  <defs
     id="defs24" />
  <sodipodi:namedview
     id="namedview22"
     pagecolor="#ffffff"
     bordercolor="#666666"
     borderopacity="1.0"
     inkscape:showpageshadow="2"
     inkscape:pageopacity="0.0"
     inkscape:pagecheckerboard="0"
     inkscape:deskcolor="#d1d1d1"
     showgrid="false"
     inkscape:zoom="13.666325"
     inkscape:cx="213.15166"
     inkscape:cy="88.319278"
     inkscape:window-width="1366"
     inkscape:window-height="697"
     inkscape:window-x="-8"
     inkscape:window-y="-8"
     inkscape:window-maximized="1"
     inkscape:current-layer="svg20" />
  <rect
     width="347"
     height="214"
     fill="#F5F5F5"
     id="rect14" />
  <path
     d="M129.651 129H128.358L132.097 118.818H133.369L137.108 129H135.815L132.773 120.429H132.693L129.651 129ZM130.128 125.023H135.338V126.116H130.128V125.023ZM141.418 129.159C140.782 129.159 140.22 128.998 139.733 128.677C139.246 128.352 138.865 127.895 138.589 127.305C138.314 126.711 138.177 126.01 138.177 125.202C138.177 124.4 138.314 123.704 138.589 123.114C138.865 122.524 139.247 122.068 139.738 121.746C140.228 121.425 140.795 121.264 141.438 121.264C141.935 121.264 142.328 121.347 142.616 121.513C142.908 121.675 143.13 121.861 143.283 122.07C143.438 122.275 143.559 122.444 143.646 122.577H143.745V118.818H144.918V129H143.785V127.827H143.646C143.559 127.966 143.437 128.142 143.278 128.354C143.119 128.562 142.892 128.75 142.597 128.915C142.302 129.078 141.909 129.159 141.418 129.159ZM141.577 128.105C142.048 128.105 142.446 127.982 142.771 127.737C143.095 127.489 143.342 127.146 143.511 126.708C143.68 126.267 143.765 125.759 143.765 125.182C143.765 124.612 143.682 124.113 143.516 123.685C143.351 123.254 143.105 122.92 142.781 122.681C142.456 122.439 142.055 122.318 141.577 122.318C141.08 122.318 140.666 122.446 140.335 122.701C140.006 122.953 139.759 123.296 139.594 123.73C139.431 124.161 139.35 124.645 139.35 125.182C139.35 125.725 139.433 126.219 139.599 126.663C139.768 127.104 140.016 127.455 140.344 127.717C140.676 127.976 141.087 128.105 141.577 128.105ZM147.23 129V121.364H148.403V129H147.23ZM147.827 120.091C147.598 120.091 147.401 120.013 147.235 119.857C147.073 119.701 146.991 119.514 146.991 119.295C146.991 119.077 147.073 118.889 147.235 118.734C147.401 118.578 147.598 118.5 147.827 118.5C148.055 118.5 148.251 118.578 148.413 118.734C148.579 118.889 148.662 119.077 148.662 119.295C148.662 119.514 148.579 119.701 148.413 119.857C148.251 120.013 148.055 120.091 147.827 120.091ZM153.655 129.159C152.939 129.159 152.322 128.99 151.805 128.652C151.288 128.314 150.89 127.848 150.612 127.255C150.334 126.662 150.194 125.984 150.194 125.222C150.194 124.446 150.337 123.762 150.622 123.168C150.91 122.572 151.311 122.106 151.825 121.771C152.342 121.433 152.945 121.264 153.635 121.264C154.172 121.264 154.656 121.364 155.086 121.562C155.517 121.761 155.87 122.04 156.145 122.398C156.421 122.756 156.591 123.173 156.657 123.651H155.484C155.395 123.303 155.196 122.994 154.888 122.726C154.583 122.454 154.172 122.318 153.655 122.318C153.197 122.318 152.796 122.437 152.452 122.676C152.11 122.911 151.843 123.245 151.651 123.675C151.462 124.103 151.368 124.605 151.368 125.182C151.368 125.772 151.461 126.286 151.646 126.723C151.835 127.161 152.1 127.5 152.442 127.742C152.786 127.984 153.191 128.105 153.655 128.105C153.96 128.105 154.236 128.052 154.485 127.946C154.733 127.84 154.944 127.688 155.116 127.489C155.289 127.29 155.411 127.051 155.484 126.773H156.657C156.591 127.223 156.427 127.629 156.165 127.991C155.907 128.349 155.564 128.634 155.136 128.846C154.712 129.055 154.218 129.159 153.655 129.159ZM158.373 129V121.364H159.546V129H158.373ZM158.969 120.091C158.741 120.091 158.543 120.013 158.378 119.857C158.215 119.701 158.134 119.514 158.134 119.295C158.134 119.077 158.215 118.889 158.378 118.734C158.543 118.578 158.741 118.5 158.969 118.5C159.198 118.5 159.394 118.578 159.556 118.734C159.722 118.889 159.805 119.077 159.805 119.295C159.805 119.514 159.722 119.701 159.556 119.857C159.394 120.013 159.198 120.091 158.969 120.091ZM164.797 129.159C164.108 129.159 163.503 128.995 162.983 128.667C162.466 128.339 162.061 127.88 161.77 127.29C161.481 126.7 161.337 126.01 161.337 125.222C161.337 124.426 161.481 123.732 161.77 123.138C162.061 122.545 162.466 122.085 162.983 121.756C163.503 121.428 164.108 121.264 164.797 121.264C165.487 121.264 166.09 121.428 166.607 121.756C167.127 122.085 167.532 122.545 167.82 123.138C168.112 123.732 168.257 124.426 168.257 125.222C168.257 126.01 168.112 126.7 167.82 127.29C167.532 127.88 167.127 128.339 166.607 128.667C166.09 128.995 165.487 129.159 164.797 129.159ZM164.797 128.105C165.321 128.105 165.752 127.971 166.09 127.702C166.428 127.434 166.678 127.081 166.841 126.643C167.003 126.206 167.084 125.732 167.084 125.222C167.084 124.711 167.003 124.236 166.841 123.795C166.678 123.354 166.428 122.998 166.09 122.726C165.752 122.454 165.321 122.318 164.797 122.318C164.274 122.318 163.843 122.454 163.505 122.726C163.167 122.998 162.916 123.354 162.754 123.795C162.592 124.236 162.51 124.711 162.51 125.222C162.51 125.732 162.592 126.206 162.754 126.643C162.916 127.081 163.167 127.434 163.505 127.702C163.843 127.971 164.274 128.105 164.797 128.105ZM171.222 124.406V129H170.048V121.364H171.182V122.557H171.281C171.46 122.169 171.732 121.857 172.097 121.622C172.461 121.384 172.932 121.264 173.509 121.264C174.026 121.264 174.478 121.37 174.866 121.582C175.254 121.791 175.555 122.109 175.771 122.537C175.986 122.961 176.094 123.498 176.094 124.148V129H174.921V124.227C174.921 123.627 174.765 123.16 174.453 122.825C174.142 122.487 173.714 122.318 173.171 122.318C172.796 122.318 172.461 122.399 172.166 122.562C171.875 122.724 171.644 122.961 171.475 123.273C171.306 123.584 171.222 123.962 171.222 124.406ZM181.44 129.159C180.704 129.159 180.069 128.997 179.536 128.672C179.005 128.344 178.596 127.886 178.308 127.3C178.022 126.71 177.88 126.024 177.88 125.241C177.88 124.459 178.022 123.77 178.308 123.173C178.596 122.573 178.997 122.106 179.511 121.771C180.028 121.433 180.631 121.264 181.32 121.264C181.718 121.264 182.111 121.33 182.499 121.463C182.886 121.596 183.239 121.811 183.558 122.109C183.876 122.404 184.129 122.795 184.318 123.283C184.507 123.77 184.602 124.37 184.602 125.082V125.58H178.715V124.565H183.408C183.408 124.134 183.322 123.75 183.15 123.412C182.981 123.074 182.739 122.807 182.424 122.612C182.112 122.416 181.745 122.318 181.32 122.318C180.853 122.318 180.449 122.434 180.107 122.666C179.769 122.895 179.509 123.193 179.327 123.561C179.144 123.929 179.053 124.323 179.053 124.744V125.42C179.053 125.997 179.153 126.486 179.352 126.887C179.554 127.285 179.834 127.588 180.192 127.797C180.55 128.002 180.966 128.105 181.44 128.105C181.748 128.105 182.026 128.062 182.275 127.976C182.527 127.886 182.744 127.754 182.926 127.578C183.108 127.399 183.249 127.177 183.349 126.912L184.482 127.23C184.363 127.615 184.162 127.953 183.881 128.244C183.599 128.533 183.251 128.758 182.837 128.92C182.422 129.08 181.957 129.159 181.44 129.159ZM190.324 129V121.364H191.497V129H190.324ZM190.92 120.091C190.692 120.091 190.495 120.013 190.329 119.857C190.166 119.701 190.085 119.514 190.085 119.295C190.085 119.077 190.166 118.889 190.329 118.734C190.495 118.578 190.692 118.5 190.92 118.5C191.149 118.5 191.345 118.578 191.507 118.734C191.673 118.889 191.756 119.077 191.756 119.295C191.756 119.514 191.673 119.701 191.507 119.857C191.345 120.013 191.149 120.091 190.92 120.091ZM196.967 121.364V122.358H193.01V121.364H196.967ZM194.163 119.534H195.336V126.812C195.336 127.144 195.385 127.393 195.481 127.558C195.58 127.721 195.706 127.83 195.858 127.886C196.014 127.939 196.178 127.966 196.351 127.966C196.48 127.966 196.586 127.959 196.669 127.946C196.752 127.929 196.818 127.916 196.868 127.906L197.106 128.96C197.027 128.99 196.916 129.02 196.773 129.05C196.631 129.083 196.45 129.099 196.231 129.099C195.9 129.099 195.575 129.028 195.257 128.886C194.942 128.743 194.68 128.526 194.471 128.234C194.266 127.943 194.163 127.575 194.163 127.131V119.534ZM201.852 129.159C201.116 129.159 200.481 128.997 199.948 128.672C199.417 128.344 199.008 127.886 198.72 127.3C198.435 126.71 198.292 126.024 198.292 125.241C198.292 124.459 198.435 123.77 198.72 123.173C199.008 122.573 199.409 122.106 199.923 121.771C200.44 121.433 201.043 121.264 201.732 121.264C202.13 121.264 202.523 121.33 202.911 121.463C203.298 121.596 203.651 121.811 203.97 122.109C204.288 122.404 204.541 122.795 204.73 123.283C204.919 123.77 205.014 124.37 205.014 125.082V125.58H199.127V124.565H203.82C203.82 124.134 203.734 123.75 203.562 123.412C203.393 123.074 203.151 122.807 202.836 122.612C202.525 122.416 202.157 122.318 201.732 122.318C201.265 122.318 200.861 122.434 200.519 122.666C200.181 122.895 199.921 123.193 199.739 123.561C199.557 123.929 199.465 124.323 199.465 124.744V125.42C199.465 125.997 199.565 126.486 199.764 126.887C199.966 127.285 200.246 127.588 200.604 127.797C200.962 128.002 201.378 128.105 201.852 128.105C202.16 128.105 202.438 128.062 202.687 127.976C202.939 127.886 203.156 127.754 203.338 127.578C203.521 127.399 203.661 127.177 203.761 126.912L204.894 127.23C204.775 127.615 204.575 127.953 204.293 128.244C204.011 128.533 203.663 128.758 203.249 128.92C202.834 129.08 202.369 129.159 201.852 129.159ZM207.972 124.406V129H206.798V121.364H207.932V122.557H208.031C208.21 122.169 208.482 121.857 208.847 121.622C209.211 121.384 209.682 121.264 210.259 121.264C210.776 121.264 211.228 121.37 211.616 121.582C212.004 121.791 212.305 122.109 212.521 122.537C212.736 122.961 212.844 123.498 212.844 124.148V129H211.671V124.227C211.671 123.627 211.515 123.16 211.203 122.825C210.892 122.487 210.464 122.318 209.921 122.318C209.546 122.318 209.211 122.399 208.916 122.562C208.625 122.724 208.394 122.961 208.225 123.273C208.056 123.584 207.972 123.962 207.972 124.406ZM220.397 123.074L219.343 123.372C219.277 123.196 219.179 123.026 219.05 122.86C218.924 122.691 218.751 122.552 218.533 122.442C218.314 122.333 218.034 122.278 217.692 122.278C217.225 122.278 216.836 122.386 216.524 122.602C216.216 122.814 216.062 123.084 216.062 123.412C216.062 123.704 216.168 123.934 216.38 124.103C216.592 124.272 216.924 124.413 217.374 124.526L218.508 124.804C219.191 124.97 219.699 125.223 220.034 125.565C220.369 125.903 220.536 126.339 220.536 126.872C220.536 127.31 220.41 127.701 220.158 128.045C219.91 128.39 219.562 128.662 219.114 128.861C218.667 129.06 218.147 129.159 217.553 129.159C216.774 129.159 216.13 128.99 215.619 128.652C215.109 128.314 214.786 127.82 214.65 127.17L215.763 126.892C215.87 127.303 216.07 127.611 216.365 127.817C216.663 128.022 217.053 128.125 217.533 128.125C218.08 128.125 218.514 128.009 218.836 127.777C219.161 127.542 219.323 127.26 219.323 126.932C219.323 126.667 219.23 126.445 219.045 126.266C218.859 126.083 218.574 125.947 218.19 125.858L216.917 125.56C216.218 125.394 215.704 125.137 215.376 124.789C215.051 124.438 214.888 123.999 214.888 123.472C214.888 123.041 215.009 122.66 215.251 122.328C215.497 121.997 215.83 121.737 216.251 121.548C216.675 121.359 217.156 121.264 217.692 121.264C218.448 121.264 219.041 121.43 219.472 121.761C219.906 122.093 220.215 122.53 220.397 123.074Z"
     fill="#242424"
     id="path16" />
  <path
     d="m 110.508,91.6016 h -3.422 c -0.063,-0.4427 -0.19,-0.836 -0.383,-1.1797 -0.193,-0.349 -0.44,-0.6459 -0.742,-0.8907 -0.302,-0.2447 -0.651,-0.4322 -1.047,-0.5625 -0.391,-0.1302 -0.815,-0.1953 -1.273,-0.1953 -0.828,0 -1.55,0.2058 -2.164,0.6172 -0.615,0.4063 -1.092,1 -1.43,1.7813 -0.3387,0.776 -0.5079,1.7187 -0.5079,2.8281 0,1.1406 0.1692,2.099 0.5079,2.875 0.344,0.776 0.823,1.362 1.437,1.7578 0.615,0.3958 1.326,0.5938 2.133,0.5938 0.453,0 0.873,-0.0599 1.258,-0.1797 0.391,-0.1198 0.737,-0.2943 1.039,-0.5235 0.302,-0.2343 0.552,-0.5182 0.75,-0.8515 0.203,-0.3334 0.344,-0.7136 0.422,-1.1407 l 3.422,0.0157 c -0.089,0.7343 -0.31,1.4427 -0.664,2.125 -0.349,0.6771 -0.821,1.2838 -1.414,1.8201 -0.589,0.531 -1.292,0.953 -2.11,1.266 -0.812,0.307 -1.731,0.461 -2.757,0.461 -1.428,0 -2.704,-0.323 -3.8286,-0.969 -1.1198,-0.646 -2.0052,-1.5807 -2.6563,-2.8047 C 96.4323,97.2214 96.1094,95.7396 96.1094,94 c 0,-1.7448 0.3281,-3.2292 0.9844,-4.4531 0.6562,-1.224 1.5468,-2.1563 2.6718,-2.7969 1.1254,-0.6458 2.3904,-0.9688 3.7974,-0.9688 0.927,0 1.786,0.1303 2.578,0.3907 0.797,0.2604 1.502,0.6406 2.117,1.1406 0.614,0.4948 1.114,1.1016 1.5,1.8203 0.39,0.7188 0.64,1.5417 0.75,2.4688 z m 5.785,10.6254 c -0.766,0 -1.448,-0.133 -2.047,-0.399 -0.599,-0.271 -1.073,-0.669 -1.422,-1.195 -0.344,-0.531 -0.515,-1.1929 -0.515,-1.9846 0,-0.6666 0.122,-1.2265 0.367,-1.6797 0.245,-0.4531 0.578,-0.8177 1,-1.0937 0.422,-0.276 0.901,-0.4844 1.437,-0.625 0.542,-0.1406 1.11,-0.2396 1.703,-0.2969 0.698,-0.0729 1.261,-0.1406 1.688,-0.2031 0.427,-0.0677 0.737,-0.1667 0.93,-0.2969 0.192,-0.1302 0.289,-0.3229 0.289,-0.5781 v -0.0469 c 0,-0.4948 -0.157,-0.8776 -0.469,-1.1484 -0.307,-0.2708 -0.745,-0.4063 -1.313,-0.4063 -0.599,0 -1.075,0.1328 -1.429,0.3985 -0.354,0.2604 -0.589,0.5885 -0.703,0.9843 l -3.079,-0.25 c 0.157,-0.7291 0.464,-1.3593 0.922,-1.8906 0.459,-0.5364 1.05,-0.9479 1.774,-1.2344 0.729,-0.2916 1.573,-0.4374 2.531,-0.4374 0.667,0 1.305,0.0781 1.914,0.2343 0.615,0.1563 1.159,0.3985 1.633,0.7266 0.479,0.3281 0.857,0.75 1.133,1.2656 0.276,0.5104 0.414,1.1224 0.414,1.8359 V 102 h -3.156 v -1.664 h -0.094 c -0.193,0.375 -0.451,0.706 -0.774,0.992 -0.323,0.281 -0.711,0.503 -1.164,0.664 -0.453,0.156 -0.976,0.235 -1.57,0.235 z m 0.953,-2.2973 c 0.49,0 0.922,-0.0964 1.297,-0.2891 0.375,-0.1979 0.669,-0.4635 0.883,-0.7968 0.213,-0.3334 0.32,-0.711 0.32,-1.1329 v -1.2734 c -0.104,0.0677 -0.247,0.1302 -0.43,0.1875 -0.177,0.0521 -0.377,0.1016 -0.601,0.1484 -0.224,0.0417 -0.448,0.0808 -0.672,0.1172 -0.224,0.0313 -0.427,0.0599 -0.609,0.086 -0.391,0.0573 -0.732,0.1484 -1.024,0.2734 -0.292,0.125 -0.518,0.2943 -0.68,0.5078 -0.161,0.2083 -0.242,0.4688 -0.242,0.7813 0,0.4531 0.164,0.7994 0.492,1.039 0.334,0.2344 0.756,0.3516 1.266,0.3516 z M 125.633,102 V 90 h 3.226 v 2.0937 h 0.125 c 0.219,-0.7447 0.586,-1.3072 1.102,-1.6874 0.516,-0.3855 1.109,-0.5782 1.781,-0.5782 0.167,0 0.347,0.0104 0.539,0.0313 0.193,0.0208 0.362,0.0495 0.508,0.0859 v 2.9531 c -0.156,-0.0468 -0.372,-0.0885 -0.648,-0.125 -0.276,-0.0364 -0.529,-0.0546 -0.758,-0.0546 -0.49,0 -0.927,0.1067 -1.313,0.3203 -0.38,0.2083 -0.682,0.5 -0.906,0.875 -0.219,0.375 -0.328,0.8073 -0.328,1.2968 V 102 Z m 9.002,0 V 90 h 3.226 v 2.0937 h 0.125 c 0.219,-0.7447 0.586,-1.3072 1.102,-1.6874 0.516,-0.3855 1.109,-0.5782 1.781,-0.5782 0.167,0 0.346,0.0104 0.539,0.0313 0.193,0.0208 0.362,0.0495 0.508,0.0859 v 2.9531 c -0.156,-0.0468 -0.372,-0.0885 -0.648,-0.125 -0.276,-0.0364 -0.529,-0.0546 -0.758,-0.0546 -0.49,0 -0.927,0.1067 -1.313,0.3203 -0.38,0.2083 -0.682,0.5 -0.906,0.875 -0.219,0.375 -0.328,0.8073 -0.328,1.2968 V 102 Z m 9.002,0 V 90 h 3.328 v 12 z m 1.672,-13.5469 c -0.495,0 -0.92,-0.164 -1.274,-0.4922 -0.349,-0.3333 -0.523,-0.7317 -0.523,-1.1953 0,-0.4583 0.174,-0.8515 0.523,-1.1797 0.354,-0.3333 0.779,-0.5 1.274,-0.5 0.494,0 0.916,0.1667 1.265,0.5 0.354,0.3282 0.531,0.7214 0.531,1.1797 0,0.4636 -0.177,0.862 -0.531,1.1953 -0.349,0.3282 -0.771,0.4922 -1.265,0.4922 z m 7.65,6.6094 V 102 h -3.328 V 90 h 3.172 v 2.1172 h 0.14 c 0.266,-0.6979 0.711,-1.25 1.336,-1.6563 0.625,-0.4114 1.383,-0.6171 2.274,-0.6171 0.833,0 1.56,0.1822 2.179,0.5468 0.62,0.3646 1.102,0.8854 1.446,1.5625 0.343,0.6719 0.515,1.474 0.515,2.4063 V 102 h -3.328 v -7.0469 c 0.005,-0.7344 -0.182,-1.3073 -0.562,-1.7187 -0.38,-0.4167 -0.904,-0.625 -1.571,-0.625 -0.447,0 -0.843,0.0963 -1.187,0.289 -0.339,0.1927 -0.604,0.474 -0.797,0.8438 -0.187,0.3646 -0.284,0.8047 -0.289,1.3203 z m 13.686,0 V 102 h -3.329 V 86 h 3.235 v 6.1172 h 0.14 c 0.271,-0.7083 0.709,-1.263 1.313,-1.6641 0.604,-0.4062 1.362,-0.6093 2.273,-0.6093 0.834,0 1.56,0.1822 2.18,0.5468 0.625,0.3594 1.109,0.8776 1.453,1.5547 0.349,0.6719 0.521,1.4766 0.516,2.4141 V 102 h -3.328 v -7.0469 c 0.005,-0.7396 -0.183,-1.3151 -0.563,-1.7265 -0.375,-0.4115 -0.901,-0.6172 -1.578,-0.6172 -0.453,0 -0.854,0.0963 -1.203,0.289 -0.344,0.1927 -0.615,0.474 -0.813,0.8438 -0.192,0.3646 -0.291,0.8047 -0.296,1.3203 z m 15.822,7.1715 c -1.214,0 -2.263,-0.257 -3.149,-0.773 -0.88,-0.521 -1.56,-1.245 -2.039,-2.1719 -0.479,-0.9323 -0.718,-2.0131 -0.718,-3.2422 0,-1.2396 0.239,-2.3229 0.718,-3.25 0.479,-0.9323 1.159,-1.6563 2.039,-2.1719 0.886,-0.5208 1.935,-0.7812 3.149,-0.7812 1.213,0 2.26,0.2604 3.14,0.7812 0.886,0.5156 1.568,1.2396 2.047,2.1719 0.479,0.9271 0.719,2.0104 0.719,3.25 0,1.2291 -0.24,2.3099 -0.719,3.2422 -0.479,0.9269 -1.161,1.6509 -2.047,2.1719 -0.88,0.516 -1.927,0.773 -3.14,0.773 z m 0.015,-2.5778 c 0.553,0 1.013,-0.1562 1.383,-0.4687 0.37,-0.3177 0.649,-0.75 0.836,-1.2969 0.193,-0.5469 0.289,-1.1692 0.289,-1.8672 0,-0.6979 -0.096,-1.3203 -0.289,-1.8672 -0.187,-0.5468 -0.466,-0.9791 -0.836,-1.2968 -0.37,-0.3177 -0.83,-0.4766 -1.383,-0.4766 -0.557,0 -1.026,0.1589 -1.406,0.4766 -0.375,0.3177 -0.659,0.75 -0.851,1.2968 -0.188,0.5469 -0.282,1.1693 -0.282,1.8672 0,0.698 0.094,1.3203 0.282,1.8672 0.192,0.5469 0.476,0.9792 0.851,1.2969 0.38,0.3125 0.849,0.4687 1.406,0.4687 z M 206.816,90 l -4.195,12 h -3.75 l -4.195,-12 h 3.515 l 2.493,8.5859 h 0.125 L 203.293,90 Z m 4.803,12.227 c -0.765,0 -1.448,-0.133 -2.047,-0.399 -0.599,-0.271 -1.073,-0.669 -1.422,-1.195 -0.343,-0.531 -0.515,-1.1929 -0.515,-1.9846 0,-0.6666 0.122,-1.2265 0.367,-1.6797 0.245,-0.4531 0.578,-0.8177 1,-1.0937 0.422,-0.276 0.901,-0.4844 1.437,-0.625 0.542,-0.1406 1.11,-0.2396 1.704,-0.2969 0.697,-0.0729 1.26,-0.1406 1.687,-0.2031 0.427,-0.0677 0.737,-0.1667 0.93,-0.2969 0.192,-0.1302 0.289,-0.3229 0.289,-0.5781 v -0.0469 c 0,-0.4948 -0.156,-0.8776 -0.469,-1.1484 -0.307,-0.2708 -0.745,-0.4063 -1.312,-0.4063 -0.599,0 -1.076,0.1328 -1.43,0.3985 -0.354,0.2604 -0.589,0.5885 -0.703,0.9843 l -3.078,-0.25 c 0.156,-0.7291 0.463,-1.3593 0.922,-1.8906 0.458,-0.5364 1.049,-0.9479 1.773,-1.2344 0.729,-0.2916 1.573,-0.4374 2.531,-0.4374 0.667,0 1.305,0.0781 1.914,0.2343 0.615,0.1563 1.159,0.3985 1.633,0.7266 0.479,0.3281 0.857,0.75 1.133,1.2656 0.276,0.5104 0.414,1.1224 0.414,1.8359 V 102 h -3.156 v -1.664 h -0.094 c -0.193,0.375 -0.451,0.706 -0.773,0.992 -0.323,0.281 -0.711,0.503 -1.165,0.664 -0.453,0.156 -0.976,0.235 -1.57,0.235 z m 0.953,-2.2973 c 0.49,0 0.922,-0.0964 1.297,-0.2891 0.375,-0.1979 0.669,-0.4635 0.883,-0.7968 0.213,-0.3334 0.32,-0.711 0.32,-1.1329 v -1.2734 c -0.104,0.0677 -0.247,0.1302 -0.429,0.1875 -0.178,0.0521 -0.378,0.1016 -0.602,0.1484 -0.224,0.0417 -0.448,0.0808 -0.672,0.1172 -0.224,0.0313 -0.427,0.0599 -0.609,0.086 -0.391,0.0573 -0.732,0.1484 -1.024,0.2734 -0.291,0.125 -0.518,0.2943 -0.679,0.5078 -0.162,0.2083 -0.243,0.4688 -0.243,0.7813 0,0.4531 0.165,0.7994 0.493,1.039 0.333,0.2344 0.755,0.3516 1.265,0.3516 z M 220.896,102 v -1.984 l 5.875,-7.2738 v -0.086 H 221.1 V 90 h 9.679 v 2.1641 l -5.515,7.0937 v 0.0859 h 5.718 V 102 Z m 12.631,0 V 90 h 3.328 v 12 z m 1.672,-13.5469 c -0.495,0 -0.919,-0.164 -1.273,-0.4922 -0.349,-0.3333 -0.524,-0.7317 -0.524,-1.1953 0,-0.4583 0.175,-0.8515 0.524,-1.1797 0.354,-0.3333 0.778,-0.5 1.273,-0.5 0.495,0 0.917,0.1667 1.266,0.5 0.354,0.3282 0.531,0.7214 0.531,1.1797 0,0.4636 -0.177,0.862 -0.531,1.1953 -0.349,0.3282 -0.771,0.4922 -1.266,0.4922 z m 9.744,13.7809 c -1.213,0 -2.263,-0.257 -3.148,-0.773 -0.88,-0.521 -1.56,-1.245 -2.039,-2.1719 -0.479,-0.9323 -0.719,-2.0131 -0.719,-3.2422 0,-1.2396 0.24,-2.3229 0.719,-3.25 0.479,-0.9323 1.159,-1.6563 2.039,-2.1719 0.885,-0.5208 1.935,-0.7812 3.148,-0.7812 1.214,0 2.261,0.2604 3.141,0.7812 0.885,0.5156 1.568,1.2396 2.047,2.1719 0.479,0.9271 0.719,2.0104 0.719,3.25 0,1.2291 -0.24,2.3099 -0.719,3.2422 -0.479,0.9269 -1.162,1.6509 -2.047,2.1719 -0.88,0.516 -1.927,0.773 -3.141,0.773 z m 0.016,-2.5778 c 0.552,0 1.013,-0.1562 1.383,-0.4687 0.37,-0.3177 0.648,-0.75 0.836,-1.2969 0.192,-0.5469 0.289,-1.1692 0.289,-1.8672 0,-0.6979 -0.097,-1.3203 -0.289,-1.8672 -0.188,-0.5468 -0.466,-0.9791 -0.836,-1.2968 -0.37,-0.3177 -0.831,-0.4766 -1.383,-0.4766 -0.557,0 -1.026,0.1589 -1.406,0.4766 -0.375,0.3177 -0.659,0.75 -0.852,1.2968 -0.187,0.5469 -0.281,1.1693 -0.281,1.8672 0,0.698 0.094,1.3203 0.281,1.8672 0.193,0.5469 0.477,0.9792 0.852,1.2969 0.38,0.3125 0.849,0.4687 1.406,0.4687 z"
     fill="#292929"
     id="path18"
     sodipodi:nodetypes="cccccsccsccsccccccccsccsccsccccsccscsccccsscscccccscccsccccccssccscccccscscsccccccsccccsccsccccccccsccccsccscccccccscscscscsccccccccsccsccccscccccccccccscccccccscccsccsccsccsccssccscssccsccscccccccccsccscsccccsscscccccscccsccccccssccscccccccscsccccccccccccccccccscscscscssccsccsccsccssccscssccsccs" />
</svg>
